<svg id="Camada_1" data-name="Camada 1" xmlns="http://www.w3.org/2000/svg" viewBox="0 0 113.4 113.4"><defs><style>.cls-1{fill:rgba(255,255,255,.5);}</style></defs><title>logoAvs</title><path class="cls-1" d="M75.4,74.8a2.5,2.5,0,0,1-1.8.8,4.25,4.25,0,0,1-1.1-.2,1.56,1.56,0,0,1-.8-.6c-.2-.3-.4-.5-.6-.8a1.49,1.49,0,0,1-.2-.9,3.55,3.55,0,0,1,.2-1,2.18,2.18,0,0,1,.5-.8,5.55,5.55,0,0,1,.8-.6,1.8,1.8,0,0,1,1-.2,2.2,2.2,0,0,1,.8.1c.2.1.4.1.6.2s.3.2.5.3.2.3.3.4l-.4.3a2.34,2.34,0,0,0-.7-.7,1.64,1.64,0,0,0-1-.2,1.88,1.88,0,0,0-.8.2,1,1,0,0,0-.6.5,1.61,1.61,0,0,0-.4.7,2.2,2.2,0,0,0-.1.8,1.88,1.88,0,0,0,.2.8,4.35,4.35,0,0,0,.4.7,4.23,4.23,0,0,0,.7.5,2.35,2.35,0,0,0,.8.2,2.92,2.92,0,0,0,.9-.2,2.41,2.41,0,0,0,.8-.6v-.8H74.1V73h1.7v2.5h-.5v-.7Z"/><path class="cls-1" d="M76.6,75.5V70.4H79a1.7,1.7,0,0,1,.7.1,1,1,0,0,1,.5.4.85.85,0,0,1,.3.5,1.27,1.27,0,0,1,.1.6.75.75,0,0,1-.1.5,1.33,1.33,0,0,1-.3.5c-.2.2-.2.3-.4.3s-.3.2-.5.2l1.4,2h-.6l-1.3-1.9H77.1v1.9Zm.6-2.3H79c.2,0,.3,0,.4-.1l.3-.3a.52.52,0,0,0,.2-.4c0-.2.1-.3.1-.4a.6.6,0,0,0-.1-.4c-.1-.1-.1-.3-.2-.4a1.38,1.38,0,0,0-.4-.3.6.6,0,0,0-.4-.1H77.1v2.4Z"/><path class="cls-1" d="M83.7,75.5a4.25,4.25,0,0,1-1.1-.2,1.56,1.56,0,0,1-.8-.6,3.51,3.51,0,0,1-.5-.8,2.92,2.92,0,0,1-.2-.9,3.55,3.55,0,0,1,.2-1,1.56,1.56,0,0,1,.6-.8,5.55,5.55,0,0,1,.8-.6,1.8,1.8,0,0,1,1-.2,4.25,4.25,0,0,1,1.1.2,2.41,2.41,0,0,1,.8.6,2.18,2.18,0,0,1,.5.8,2.92,2.92,0,0,1,.2.9,3.55,3.55,0,0,1-.2,1,1.56,1.56,0,0,1-.6.8c-.3.2-.5.4-.8.6A1.5,1.5,0,0,1,83.7,75.5ZM81.6,73a2.35,2.35,0,0,0,.2.8,1.61,1.61,0,0,0,.4.7,1.79,1.79,0,0,0,.7.5,2.35,2.35,0,0,0,.8.2,2.92,2.92,0,0,0,.9-.2,1.79,1.79,0,0,0,.7-.5,1.61,1.61,0,0,0,.4-.7,2.2,2.2,0,0,0,.1-.8,2.35,2.35,0,0,0-.2-.8,1.61,1.61,0,0,0-.4-.7,1.79,1.79,0,0,0-.7-.5,2.35,2.35,0,0,0-.8-.2,2.92,2.92,0,0,0-.9.2,1.79,1.79,0,0,0-.7.5,1.61,1.61,0,0,0-.4.7C81.7,72.5,81.6,72.7,81.6,73Z"/><path class="cls-1" d="M89.4,75.1a2.39,2.39,0,0,0,.9-.2,2.65,2.65,0,0,0,.6-.5,4.88,4.88,0,0,0,.3-.7,2.2,2.2,0,0,0,.1-.8V70.3h.6V73a3.4,3.4,0,0,1-.1,1,2,2,0,0,1-.4.8,4.35,4.35,0,0,1-.7.6,3.12,3.12,0,0,1-2.2,0,1.34,1.34,0,0,1-.7-.6,2,2,0,0,1-.4-.8,1.19,1.19,0,0,1-.4-1V70.4h.5V73a2.2,2.2,0,0,0,.1.8,4.88,4.88,0,0,0,.3.7,1,1,0,0,0,.6.5C88.7,75,89,75.1,89.4,75.1Z"/><path class="cls-1" d="M92.7,75.5V70.4H95a1.7,1.7,0,0,1,.7.1,1,1,0,0,1,.5.4.85.85,0,0,1,.3.5,1.85,1.85,0,0,1,0,1.2,1.73,1.73,0,0,1-.8.9,1.48,1.48,0,0,1-.7.1H93.2v1.9Zm.6-2.3h1.8c.2,0,.3,0,.4-.1s.3-.1.3-.3a.52.52,0,0,0,.2-.4.6.6,0,0,0,.1-.4c0-.2,0-.3-.1-.4s-.1-.3-.2-.4a.52.52,0,0,0-.4-.2.6.6,0,0,0-.4-.1H93.2v2.3Z"/><rect class="cls-1" x="11.7" y="71.9" width="55.9" height="1.9"/><path class="cls-1" d="M43,68.3H37.1l-1.2-5.7H28.4l-1.2,5.7H21.3v-.1l7.7-30h6.3Zm-8-9.6L32.1,45.2,29.2,58.7Z"/><path class="cls-1" d="M58.6,38.3l-7.7,30h-6l-7.6-30h6l4.5,20.6c0,.6.1,1.4.2,2.6a14.35,14.35,0,0,1,.2-2.6l4.5-20.6Z"/><path class="cls-1" d="M72.9,65.6c-.5,1.8-1.9,2.7-4.3,2.7l-12-.1c-2.4,0-3.4-.9-2.9-2.8l1.8-7.1h6l-1.6,6.1h7.3l1.5-5.9-9.8-8.6a2.31,2.31,0,0,1-.7-2.4l1.7-6.7c.5-1.8,1.9-2.8,4.3-2.7l12,.1c2.4,0,3.4.9,2.9,2.7l-1.7,6.7h-6L72.8,42H65.5l-1.4,5.4L74,56a2.31,2.31,0,0,1,.7,2.4Z"/><path class="cls-1" d="M102.9,47.5,82.3,41.4l-1.7,6.5c9.2,1.8,16.7,3.3,16.7,3.3L96.1,63.8l.4,3.4,7.1-18.3A1.08,1.08,0,0,0,102.9,47.5Z"/><polygon class="cls-1" points="83.2 51.4 82.3 55.4 94.5 56.3 94.7 53.5 83.2 51.4"/><polygon class="cls-1" points="81.5 58 80 63.4 94.2 60.3 94.4 57.8 81.5 58"/></svg>