<svg id="Camada_1" data-name="Camada 1" xmlns="http://www.w3.org/2000/svg" viewBox="0 0 364.22 364.22"><defs><style>.cls-1,.cls-2{fill:#fff;}.cls-2{fill-rule:evenodd;}</style></defs><title>logoCarretoBarato</title><path class="cls-1" d="M63.91,268.71c5.2,9,2.13,19.78-8,25.62-10.38,6-21,2.83-26.17-6.11-2.36-4.1-3.27-9.48-1.56-13.72l8.07,1.76a8.11,8.11,0,0,0,.44,7.63c2.83,4.93,9.07,6,14.78,2.74,5.91-3.4,7.95-9.15,5.14-14a8.4,8.4,0,0,0-6.87-4.32L52,260.4A16.09,16.09,0,0,1,63.91,268.71Z"/><path class="cls-1" d="M50.45,234.92l-6.37,4.49L47.56,252l7.73.45,2.36,8.57L17.87,257.3l-2.11-7.65L48,226.17Zm-24,16L40,251.7l-2.26-8.2Z"/><path class="cls-1" d="M48.33,207.24l-14.7,7.58,0,2.77,14.83-.27.15,8L11.3,226l-.24-12.9c-.12-6.5,2.51-13,11.06-13.16a10.06,10.06,0,0,1,10.21,6.84l15.82-9.13Zm-30,6.33.08,4.35,8.71-.16-.07-3.87c-.05-2.63-.85-5.91-4.65-5.84C18.94,208.11,18.31,211.13,18.35,213.57Z"/><path class="cls-1" d="M52.61,178.12,36.55,182l-.6,2.71L50.42,188l-1.74,7.84-36.46-8.11L15,175.1c1.41-6.35,5.49-12,13.83-10.19a10,10,0,0,1,8.31,9l17.53-5.16ZM22,177.24l-.94,4.24,8.49,1.89.84-3.78c.57-2.56.57-5.94-3.14-6.77C23.85,172.07,22.53,174.86,22,177.24Z"/><path class="cls-1" d="M55.79,167.08,22.13,150.89,32,130.39l6.9,3.32L32.44,147.1l6.33,3,6.09-12.66,6.51,3.14-6.09,12.66,7,3.36,6.82-14.17L66,145.81Z"/><path class="cls-1" d="M53.59,113.28,77,131.51,72,138,48.57,119.72l-5.87,7.54-6.08-4.73L53.39,101l6.07,4.74Z"/><path class="cls-1" d="M96.58,114c-8.32,6.5-19.43,5-26.71-4.31S64,89.48,72.35,83s19.17-5.41,26.54,4S104.93,107.46,96.58,114ZM77.35,89.38c-4.52,3.53-4.62,9.77-.59,14.93,4.16,5.32,10.27,6.7,14.75,3.2s4.65-9.8.49-15.12C88,87.23,81.86,85.85,77.35,89.38Z"/><path class="cls-1" d="M136.51,92.2l-12.87,4-11-35.68,12.87-4c5-1.55,11.61-1.44,13.84,5.77a8.15,8.15,0,0,1-2.91,9.35l0,.1A8.37,8.37,0,0,1,145.61,78C148,85.77,142.67,90.29,136.51,92.2ZM126.07,63.84,122.24,65l2.28,7.36,4.2-1.3c2.92-.91,4.19-2.79,3.41-5.31S129.36,62.82,126.07,63.84Zm4.75,13.55-4.33,1.35L129,86.9l4.38-1.36c2.47-.76,5.25-2.45,4.17-5.92C136.64,76.64,134.15,76.36,130.82,77.39Z"/><path class="cls-1" d="M174.9,86.73l-3-7.2-13.08.64-2.12,7.45-8.87.44,12.34-38,7.92-.39L184,86.28ZM164.5,59.82l-3.67,13,8.49-.42Z"/><path class="cls-1" d="M202.36,90.62l-4.23-16-2.72-.55-2.93,14.54L184.61,87,192,50.4,204.65,53c6.37,1.29,12.15,5.26,10.46,13.64a10,10,0,0,1-8.88,8.48l5.5,17.43ZM202.65,60l-4.26-.86-1.73,8.54,3.8.76c2.57.53,5.95.46,6.7-3.27C207.85,61.74,205,60.47,202.65,60Z"/><path class="cls-1" d="M234.05,103.26l.83-7.75-11.78-5.7-5.43,5.51-8-3.87L238.72,64l7.14,3.45-3.65,39.74Zm3.77-28.6-9.46,9.66L236,88Z"/><path class="cls-1" d="M269.88,92.53l-18.31,23.33-6.43-5,18.31-23.34-7.52-5.9,4.76-6.06,21.47,16.84-4.76,6.07Z"/><path class="cls-1" d="M269,135.51c-6.48-8.34-4.95-19.44,4.39-26.69s20.23-5.78,26.7,2.56,5.35,19.19-4.11,26.54S275.52,143.89,269,135.51Zm24.67-19.15c-3.51-4.53-9.75-4.64-14.92-.63-5.33,4.14-6.74,10.24-3.25,14.74s9.78,4.68,15.12.54C295.81,127,297.21,120.89,293.69,116.36Z"/><path class="cls-1" d="M250.3,266.39a94.74,94.74,0,1,1-3.66-111.63h19.65a13.14,13.14,0,0,1,4.88.79,114.61,114.61,0,1,0,2.32,110.85Z"/><path class="cls-2" d="M347.56,242.61s-.31-19.86-2.91-25.45c-2.66-5.74-15.31-10.5-15.31-10.5l-25.1-31.48h-30.8v67.43l-3.35,0s.07-71.27,0-77.08c0-3.4-.46-4.17-3.8-4.17H169.52c-4.09,0-5.7,1.64-5.7,6.22v75.05h-2.68V259.8l19.94,0h.71c0-.16,0-.32,0-.48a22.11,22.11,0,1,1,44.21,0c0,.17,0,.34,0,.51h1l57.37,0h1c0-.18,0-.35,0-.53a22.11,22.11,0,1,1,44.21,0c0,.17,0,.34,0,.51h21.75V242.61ZM318.21,208H280.13V181.88h21.44l17.86,24.78Z"/><path class="cls-1" d="M203.87,279.38A20.09,20.09,0,1,1,224,259.29,20.12,20.12,0,0,1,203.87,279.38Zm0-30a9.92,9.92,0,1,0,9.92,9.92A9.93,9.93,0,0,0,203.87,249.37Z"/><path class="cls-1" d="M307.42,279.38a20.09,20.09,0,1,1,20.1-20.09A20.12,20.12,0,0,1,307.42,279.38Zm0-30a9.92,9.92,0,1,0,9.92,9.92A9.93,9.93,0,0,0,307.42,249.37Z"/><polygon class="cls-1" points="101.45 178.64 157.56 176.45 157.56 180.84 101.45 178.64"/><polygon class="cls-1" points="112.72 192.65 157.56 190.45 157.56 194.84 112.72 192.65"/><polygon class="cls-1" points="124.31 208.39 157.56 206.19 157.56 210.58 124.31 208.39"/></svg>